<svg version="1.1" xmlns="http://www.w3.org/2000/svg" viewBox="0 0 680.7169189453125 375.4548034667969" width="680.7169189453125" height="375.4548034667969">
  <!-- svg-source:excalidraw -->
  
  <defs>
    <style>
      @font-face {
        font-family: "Virgil";
        src: url("https://excalidraw.com/Virgil.woff2");
      }
      @font-face {
        font-family: "Cascadia";
        src: url("https://excalidraw.com/Cascadia.woff2");
      }
    </style>
  </defs>
  <rect x="0" y="0" width="680.7169189453125" height="375.4548034667969" fill="#FFF"></rect><g stroke-linecap="round" transform="translate(420.70654296875 252.50885009765625) rotate(0 97.12283325195312 49.054656982421875)"><path d="M135.3 4.44 C148.1 6.4, 159.69 11.91, 169.05 17.26 C178.41 22.61, 187.5 29.8, 191.46 36.55 C195.42 43.3, 195.39 50.83, 192.81 57.79 C190.23 64.74, 184.37 72.4, 175.98 78.28 C167.6 84.16, 154.86 89.65, 142.49 93.07 C130.13 96.49, 115.55 98.76, 101.77 98.8 C87.99 98.85, 72.85 96.3, 59.8 93.33 C46.74 90.37, 32.96 86.3, 23.44 81.03 C13.93 75.76, 6.41 68.35, 2.72 61.69 C-0.96 55.04, -1.18 47.83, 1.34 41.11 C3.87 34.39, 9.5 27.38, 17.86 21.37 C26.22 15.36, 39.01 8.69, 51.5 5.06 C63.99 1.42, 77.44 -0.55, 92.8 -0.45 C108.15 -0.36, 133.84 3.83, 143.63 5.65 C153.43 7.47, 152.31 9.63, 151.57 10.44 M118.76 -0.19 C132.02 0.46, 145.93 4.76, 156.69 9.18 C167.46 13.61, 177.25 20.02, 183.36 26.37 C189.48 32.72, 193.28 40.08, 193.39 47.3 C193.49 54.51, 190.06 62.94, 184 69.68 C177.94 76.42, 167.68 83.35, 157.04 87.74 C146.4 92.12, 133.78 94.65, 120.18 95.98 C106.59 97.31, 89.26 97.32, 75.47 95.73 C61.67 94.15, 48.5 90.48, 37.39 86.47 C26.28 82.46, 15.21 77.85, 8.8 71.69 C2.39 65.52, -1.1 56.96, -1.07 49.46 C-1.03 41.97, 2.76 32.91, 8.98 26.7 C15.21 20.49, 25.06 16.53, 36.27 12.19 C47.48 7.85, 62.43 2.35, 76.22 0.67 C90 -1.01, 111.84 1.76, 118.99 2.1 C126.14 2.45, 119.64 2.02, 119.13 2.76" stroke="#000000" stroke-width="1" fill="none"></path></g><g transform="translate(465.8293762207031 276.5635070800781) rotate(0 52 25)"><text x="52" y="18" font-family="Virgil, Segoe UI Emoji" font-size="20px" fill="#000000" text-anchor="middle" style="white-space: pre;" direction="ltr">Weltliches </text><text x="52" y="43" font-family="Virgil, Segoe UI Emoji" font-size="20px" fill="#000000" text-anchor="middle" style="white-space: pre;" direction="ltr">Begehren</text></g><g stroke-linecap="round" transform="translate(476.47125244140625 119.80502319335938) rotate(0 97.12283325195312 49.054656982421875)"><path d="M76.18 0.27 C88.95 -1.7, 105.91 -0.22, 119.5 1.63 C133.1 3.47, 146.82 6.75, 157.75 11.33 C168.69 15.91, 178.99 22.63, 185.1 29.1 C191.2 35.57, 194.54 43.18, 194.4 50.13 C194.26 57.08, 190.45 64.4, 184.25 70.82 C178.06 77.25, 168.36 84.46, 157.23 88.71 C146.09 92.95, 131.41 94.94, 117.45 96.31 C103.48 97.67, 86.93 98.3, 73.44 96.89 C59.95 95.49, 47.25 92.38, 36.53 87.89 C25.81 83.4, 15.36 76.66, 9.11 69.94 C2.85 63.21, -1.21 54.62, -0.99 47.56 C-0.76 40.51, 4.02 33.63, 10.46 27.59 C16.89 21.55, 25.39 15.9, 37.59 11.34 C49.79 6.78, 74.82 1.96, 83.64 0.25 C92.46 -1.45, 90.19 0.13, 90.51 1.11 M135.3 4.45 C147.96 6.34, 160.63 11.13, 170.13 16.52 C179.63 21.91, 188.79 30.03, 192.31 36.8 C195.82 43.57, 194.1 50, 191.24 57.13 C188.39 64.25, 183.25 73.56, 175.19 79.54 C167.12 85.52, 155.5 89.91, 142.86 93.03 C130.22 96.14, 113.25 98.25, 99.35 98.23 C85.45 98.21, 72.08 95.77, 59.46 92.91 C46.84 90.04, 33.22 86.43, 23.62 81.05 C14.02 75.67, 5.46 67.31, 1.85 60.63 C-1.76 53.96, -0.79 47.61, 1.97 41.02 C4.72 34.42, 10.1 26.87, 18.39 21.08 C26.68 15.29, 39.29 10, 51.71 6.29 C64.12 2.58, 78.97 -0.62, 92.9 -1.2 C106.83 -1.77, 128.07 1.6, 135.28 2.83 C142.49 4.07, 136.56 5.49, 136.19 6.22" stroke="#000000" stroke-width="1" fill="none"></path></g><g transform="translate(488.5319519042969 151.11642456054688) rotate(0 84 25)"><text x="84" y="18" font-family="Virgil, Segoe UI Emoji" font-size="20px" fill="#000000" text-anchor="middle" style="white-space: pre;" direction="ltr">Gewissensbisse &amp;</text><text x="84" y="43" font-family="Virgil, Segoe UI Emoji" font-size="20px" fill="#000000" text-anchor="middle" style="white-space: pre;" direction="ltr">Sorgen</text></g><g stroke-linecap="round" transform="translate(10 267.3454895019531) rotate(0 97.12283325195312 49.054656982421875)"><path d="M60.33 3.85 C72.09 0.83, 88.46 -0.17, 102.53 0.37 C116.6 0.92, 132.35 3.6, 144.75 7.12 C157.15 10.64, 168.87 15.81, 176.93 21.49 C184.99 27.17, 190.83 34.11, 193.12 41.19 C195.41 48.27, 194.72 57.26, 190.67 63.95 C186.63 70.64, 178.52 76.21, 168.85 81.33 C159.17 86.45, 145.46 91.75, 132.61 94.67 C119.76 97.58, 105.62 99.31, 91.76 98.85 C77.9 98.39, 62 95.69, 49.45 91.91 C36.9 88.14, 24.46 81.99, 16.48 76.21 C8.5 70.42, 3.65 63.91, 1.59 57.22 C-0.46 50.54, 0.17 42.99, 4.15 36.1 C8.13 29.2, 15.31 21.39, 25.45 15.84 C35.6 10.29, 57.51 4.79, 65.03 2.79 C72.56 0.78, 69.95 3.05, 70.6 3.83 M105.05 -0.44 C118.84 -0.57, 136.26 3.71, 148.23 7.26 C160.21 10.81, 169.38 14.78, 176.91 20.85 C184.44 26.93, 191.24 36.4, 193.43 43.72 C195.63 51.03, 194.61 58.19, 190.07 64.75 C185.52 71.32, 175.74 78.24, 166.17 83.1 C156.61 87.96, 145.57 91.44, 132.66 93.92 C119.75 96.4, 103.16 98.63, 88.71 98 C74.25 97.38, 57.99 93.62, 45.93 90.17 C33.86 86.72, 23.93 82.83, 16.3 77.29 C8.67 71.74, 2.12 64.02, 0.15 56.9 C-1.82 49.78, 0.18 41.73, 4.5 34.56 C8.82 27.4, 16.48 19.39, 26.08 13.93 C35.68 8.48, 48.66 3.91, 62.08 1.82 C75.5 -0.27, 99.21 1.72, 106.6 1.37 C113.98 1.02, 106.43 -0.66, 106.37 -0.27" stroke="#000000" stroke-width="1" fill="none"></path></g><g transform="translate(72.62283325195312 303.900146484375) rotate(0 34.5 12.5)"><text x="34.5" y="18" font-family="Virgil, Segoe UI Emoji" font-size="20px" fill="#000000" text-anchor="middle" style="white-space: pre;" direction="ltr">Zweifel</text></g><g stroke-linecap="round" transform="translate(233.2552490234375 148.66140747070312) rotate(0 97.12283325195312 49.054656982421875)"><path d="M3.57 36.23 C3.57 36.23, 3.57 36.23, 3.57 36.23 M3.57 36.23 C3.57 36.23, 3.57 36.23, 3.57 36.23 M4.18 42.9 C7.64 36.51, 12.68 34.34, 25.06 18.47 M1.75 43.26 C10.27 34.92, 16.28 27.66, 25.1 17.85 M1.87 48.59 C8.74 41.43, 17.28 28.9, 33.41 15.62 M1.87 49.31 C12.49 38.27, 22.05 27.91, 32.73 15.01 M1.25 55.6 C16.87 39.76, 26.31 26.53, 38.46 10.54 M1.41 56.43 C10.41 47.99, 18.8 38.49, 39.27 12.77 M4.56 60.61 C18.42 44.1, 36.6 24.37, 47.42 7 M3.63 61.87 C15.67 45.29, 28.61 31.75, 48.35 9.49 M4.41 63.55 C25.04 41.35, 44.86 16.49, 58.84 5.17 M6.69 62.75 C24.66 44.47, 41.22 23.85, 58.01 4.98 M9.85 68.01 C25.92 47.74, 44.56 26.7, 64.69 5.97 M7.72 67.48 C26.16 45.68, 46.43 25.55, 62.8 3.87 M10.17 70.29 C27.17 52.92, 45.83 32.42, 70.08 3.65 M10.72 69.68 C25.36 54.29, 36.96 39.27, 69.6 3.09 M13.64 71.57 C29.07 54.63, 46.81 35.91, 75.39 3.24 M15.34 71.37 C37.61 46.42, 60.19 18.97, 73.84 4.24 M18.1 77.03 C33.75 55.47, 52.78 33.06, 80.23 2.12 M17.55 74.95 C31.27 59.02, 45.43 41.87, 79.44 4.17 M21.54 78.97 C38.11 60.05, 52.1 40.99, 84.64 2.68 M20.28 79.29 C38.65 55.85, 56.2 35.07, 86.14 2.47 M22.13 83.42 C46.05 57.74, 67.03 29.41, 91.16 0.68 M21.52 81.31 C47.23 52.56, 72.5 25.31, 91.61 0.86 M25.46 84.05 C48.97 58.69, 69.66 32.67, 97.36 2.13 M27.58 82.73 C43.54 63.86, 60.9 44.98, 98.04 0.96 M31.89 86.02 C49.45 67.07, 63.55 46.09, 100.53 1.15 M30.56 85.01 C50.52 61.23, 70.05 38.2, 100.91 3.11 M34.44 84.86 C57.81 55.98, 83.49 30.96, 107.56 3.36 M34.28 85 C52.2 65.93, 70.09 45.78, 106.9 2.66 M36.81 87.36 C64.23 56.85, 89.18 28.21, 113 2.76 M38.32 86.88 C62.66 61.2, 86.55 33.46, 112.05 3.84 M42.61 87.67 C69.09 59.95, 99.77 27.44, 117.58 4.33 M41.41 89.17 C58.5 73.07, 73.41 54.61, 116.3 3.27 M46.01 90.91 C71.22 59.99, 97.5 28.83, 120.27 2.68 M46.05 91.28 C66.97 67.93, 86.25 45.29, 121.67 5.54 M50.42 92.87 C71.38 66.56, 93.55 42.23, 124.85 5.17 M49.28 92.1 C65.06 73.12, 81.96 55.28, 124.83 5.29 M53.68 92.05 C78.1 68.7, 98.22 42.84, 130.51 7.02 M53.95 93.06 C80.49 66.13, 104.33 37.01, 129.8 5.22 M60.1 96.34 C84.74 64.17, 108.35 35.44, 136.53 5.21 M58.82 95.69 C82.06 68.66, 102.73 44.44, 134.7 6.99 M64.38 96.61 C84.34 74.03, 103.66 49.1, 141.55 4.83 M64.52 94.14 C93.1 60.43, 124.64 25.85, 141.04 6.43 M68.92 95.88 C97.38 65.51, 126.51 32.32, 142.86 5.98 M68.95 95.33 C84.76 78.41, 101.19 58.38, 145.12 7.45 M73.09 97.37 C97.74 70.22, 123.99 40.18, 150.35 11.61 M72.6 95.95 C102.4 61.85, 132.79 26.94, 148.01 10.76 M76.57 95.97 C93.19 79.33, 108.4 65.02, 151.15 12.94 M77.91 96.76 C101.54 68.69, 125.37 41.23, 152.27 12.26 M81.21 97.53 C108.21 67.28, 134.74 35.39, 157.55 11.53 M83.3 98.95 C107.17 71.74, 130.19 44.23, 155.93 12.05 M86.44 98.29 C110.94 70.43, 132.85 46.06, 161.71 14.97 M86.54 98.44 C109.7 71.92, 132.75 45.91, 159.24 15.04 M91.15 100.23 C106.52 82.18, 126.04 59.31, 164.19 17.7 M90.71 100.16 C107.57 81.27, 123.84 62.87, 163.32 16.7 M97.67 101.7 C119.81 73.39, 141.97 47.29, 168.63 16.65 M96.32 99.64 C112.36 80.71, 127.9 64.34, 168.81 17.69 M103.73 99.05 C131.98 68.41, 157.73 37.38, 172.38 18.9 M103.21 99.58 C126.95 69.48, 152.58 40.5, 172.67 20.37 M108.43 99 C128.33 75.24, 148.86 55.68, 175.73 21.75 M108.7 99.15 C124.76 80.42, 141.23 61.88, 175.38 19.89 M114.85 97.76 C137.1 73.02, 156.55 49.75, 179.98 25.65 M114.16 98.04 C135.79 73.53, 157.82 49.54, 179.14 24.02 M118.01 99.18 C131.42 85.49, 143.69 67.13, 181.24 25.01 M119.12 97.55 C140.19 75.06, 159.3 53.24, 181.68 26.89 M125.49 96.07 C139.77 79.15, 158.42 60.2, 181.89 28.12 M123.9 98.89 C142.25 77.87, 159.19 57.99, 183.83 29.89 M130.06 95.66 C149.14 75.2, 170.17 51.91, 185.74 31.03 M130.31 97.46 C150.55 72.91, 171.16 49.73, 186.69 32.41 M136.28 94.62 C152.8 79.19, 167.78 62.58, 189.4 36.91 M138.35 94.97 C155.15 76.97, 169.79 56.93, 189.13 36.22 M147.88 90.53 C160.53 75.03, 176.34 57.25, 191.55 40.16 M145.57 91.72 C157.13 78.72, 166.41 68.24, 191.05 38.49 M156.3 86.71 C165.13 75.72, 172.47 67.32, 195.53 42.07 M153.77 88.44 C167.4 73.54, 179.42 60.28, 194.08 42.33 M161.32 85.6 C172.5 71.18, 186.86 58.72, 192.77 50.18 M163.62 84.54 C173.02 72.88, 181.96 61.44, 193.07 49.2 M171.06 82.9 C176.73 74.62, 186.08 62.89, 193.82 55.13 M170.76 81.25 C175.97 74.55, 180.28 69.11, 193.13 54.58" stroke="#fab005" stroke-width="0.5" fill="none"></path><path d="M56.88 4.5 C68.53 1.18, 85.88 0.58, 100.08 0.84 C114.28 1.1, 129.59 2.9, 142.08 6.04 C154.57 9.17, 166.53 13.88, 174.99 19.63 C183.46 25.38, 190.21 33.7, 192.86 40.55 C195.52 47.4, 194.7 54, 190.92 60.73 C187.14 67.46, 179.11 75.28, 170.2 80.94 C161.28 86.61, 150.09 91.85, 137.41 94.72 C124.73 97.6, 108.47 98.71, 94.12 98.2 C79.78 97.69, 63.73 94.89, 51.33 91.66 C38.93 88.42, 27.94 84.15, 19.72 78.78 C11.49 73.42, 4.68 66.55, 1.96 59.49 C-0.76 52.44, -0.16 43.47, 3.38 36.44 C6.92 29.42, 13.32 22.7, 23.19 17.32 C33.06 11.95, 55.23 6.47, 62.61 4.18 C69.99 1.89, 66.98 3.04, 67.47 3.57 M108.44 0.58 C121.78 0.45, 135.04 2.24, 146.79 6.12 C158.55 9.99, 171.08 17.58, 178.96 23.84 C186.85 30.1, 192.61 36.81, 194.1 43.67 C195.6 50.53, 192.3 58.54, 187.92 64.99 C183.54 71.44, 177.42 77.32, 167.81 82.37 C158.21 87.42, 143.98 92.89, 130.3 95.3 C116.62 97.71, 99.7 97.4, 85.72 96.85 C71.74 96.31, 58.27 95.37, 46.42 92.03 C34.57 88.68, 22.28 82.84, 14.62 76.78 C6.96 70.72, 2.17 63.1, 0.46 55.65 C-1.26 48.19, -0.08 39.09, 4.33 32.04 C8.74 25, 16.81 18.03, 26.93 13.37 C37.04 8.71, 51.51 6.5, 65 4.08 C78.49 1.65, 100.65 -0.48, 107.86 -1.18 C115.06 -1.88, 108.47 -1.28, 108.23 -0.13" stroke="#000000" stroke-width="1" fill="none"></path></g><g transform="translate(247.87808227539062 185.216064453125) rotate(0 82.5 12.5)"><text x="82.5" y="18" font-family="Virgil, Segoe UI Emoji" font-size="20px" fill="#000000" text-anchor="middle" style="white-space: pre;" direction="ltr">Die 5 Hindernisse</text></g><g stroke-linecap="round" transform="translate(258.5177001953125 10) rotate(0 97.12283325195312 49.054656982421875)"><path d="M109.98 1.25 C123.57 1.45, 138.9 4.82, 150.65 8.58 C162.41 12.33, 173.26 17.64, 180.53 23.8 C187.8 29.96, 193.04 38.57, 194.28 45.52 C195.51 52.48, 193.07 59.01, 187.92 65.52 C182.77 72.03, 173.35 79.43, 163.38 84.6 C153.42 89.77, 141.32 94.33, 128.13 96.52 C114.94 98.72, 98.45 99.02, 84.22 97.79 C69.99 96.55, 54.43 92.98, 42.76 89.12 C31.08 85.26, 21.21 80.38, 14.17 74.62 C7.14 68.85, 1.85 61.68, 0.55 54.52 C-0.75 47.36, 1.47 38.47, 6.38 31.66 C11.29 24.85, 19.77 18.4, 30 13.67 C40.23 8.93, 53.51 5.38, 67.75 3.25 C82 1.11, 106.95 1.13, 115.5 0.86 C124.04 0.59, 119.43 0.95, 119.03 1.66 M75.49 -0.08 C88.02 -2.06, 106.08 0.68, 120.04 2.63 C134 4.58, 148.57 7.34, 159.24 11.65 C169.9 15.96, 177.95 22.34, 184.01 28.5 C190.08 34.67, 195.58 41.55, 195.64 48.64 C195.7 55.72, 191.07 64.65, 184.35 71.01 C177.62 77.37, 166.39 82.27, 155.29 86.81 C144.18 91.34, 131.35 96.36, 117.72 98.22 C104.1 100.09, 87.28 99.75, 73.54 97.99 C59.81 96.23, 46.21 92.58, 35.33 87.67 C24.44 82.76, 14.27 75.29, 8.24 68.53 C2.2 61.77, -1.35 53.8, -0.9 47.1 C-0.45 40.41, 4.42 34.74, 10.95 28.37 C17.49 22, 27.11 13.64, 38.29 8.86 C49.48 4.09, 71.52 0.76, 78.05 -0.28 C84.58 -1.32, 77.58 1.45, 77.47 2.62" stroke="#000000" stroke-width="1" fill="none"></path></g><g transform="translate(301.1405334472656 34.054656982421875) rotate(0 54.5 25)"><text x="54.5" y="18" font-family="Virgil, Segoe UI Emoji" font-size="20px" fill="#000000" text-anchor="middle" style="white-space: pre;" direction="ltr">Trägheit &amp;</text><text x="54.5" y="43" font-family="Virgil, Segoe UI Emoji" font-size="20px" fill="#000000" text-anchor="middle" style="white-space: pre;" direction="ltr">Lethargie</text></g><g stroke-linecap="round" transform="translate(38.5081787109375 85.41433715820312) rotate(0 97.12283325195312 49.054656982421875)"><path d="M96 0.14 C109.29 -0.89, 125.6 1.39, 138.43 4.31 C151.26 7.24, 164.05 12.32, 172.98 17.67 C181.9 23.02, 188.81 29.45, 191.98 36.42 C195.16 43.4, 194.92 52.51, 192.03 59.53 C189.14 66.54, 183.27 72.86, 174.65 78.51 C166.03 84.15, 152.82 90.06, 140.31 93.39 C127.8 96.73, 113.67 98.39, 99.6 98.53 C85.53 98.67, 68.89 97.31, 55.89 94.21 C42.89 91.1, 30.5 85.41, 21.6 79.92 C12.7 74.42, 5.72 68.16, 2.5 61.24 C-0.72 54.32, -0.59 45.51, 2.3 38.38 C5.18 31.26, 11.37 23.91, 19.8 18.48 C28.22 13.05, 39.7 8.87, 52.85 5.79 C66 2.71, 90.23 0.75, 98.69 -0.01 C107.15 -0.77, 103.46 0.33, 103.62 1.22 M130.13 2.04 C143.17 3.65, 155.71 9.05, 165.72 14.03 C175.73 19.01, 185.44 25.24, 190.19 31.92 C194.95 38.61, 195.98 46.85, 194.26 54.13 C192.54 61.42, 187.75 69.37, 179.87 75.64 C171.99 81.9, 159.2 87.88, 147 91.73 C134.8 95.59, 120.62 98.28, 106.67 98.76 C92.72 99.23, 76.62 96.91, 63.31 94.59 C49.99 92.26, 36.28 89.82, 26.78 84.83 C17.27 79.83, 10.49 71.75, 6.27 64.62 C2.05 57.5, -0.03 49.11, 1.47 42.1 C2.96 35.08, 7.8 28.31, 15.24 22.53 C22.67 16.75, 34.07 11.25, 46.06 7.42 C58.05 3.6, 73.29 0.41, 87.18 -0.41 C101.07 -1.24, 122.24 1.9, 129.41 2.45 C136.58 3.01, 130.92 1.89, 130.18 2.92" stroke="#000000" stroke-width="1" fill="none"></path></g><g transform="translate(91.13101196289062 121.968994140625) rotate(0 44.5 12.5)"><text x="44.5" y="18" font-family="Virgil, Segoe UI Emoji" font-size="20px" fill="#000000" text-anchor="middle" style="white-space: pre;" direction="ltr">Abneigung</text></g><g stroke-linecap="round"><g transform="translate(432.20672607421875 181.88375854492188) rotate(0 20.06591796875 -1.6120147705078125)"><path d="M0.55 0.61 C6.91 0.04, 32.64 -1.57, 39.15 -2.4 M-0.62 -0.11 C6.02 -0.5, 34.81 -3.5, 41.35 -4.09" stroke="#000000" stroke-width="1" fill="none"></path></g></g><g stroke-linecap="round"><g transform="translate(339.7967529296875 136.85037231445312) rotate(0 0.827972412109375 -11.940704345703125)"><path d="M0.34 0.93 C0.99 -3.09, 2.72 -20.21, 2.84 -24.24 M-0.94 0.37 C-0.25 -3.46, 2.36 -18.62, 2.51 -22.89" stroke="#000000" stroke-width="1" fill="none"></path></g></g><g stroke-linecap="round"><g transform="translate(403.86041259765625 232.41970825195312) rotate(0 14.01129150390625 14.14752197265625)"><path d="M1.1 -1.09 C6.12 3.44, 24.56 23.24, 29.21 28.2 M0.21 0.95 C5.27 6.21, 24.13 25.43, 28.88 29.69" stroke="#000000" stroke-width="1" fill="none"></path></g></g><g stroke-linecap="round"><g transform="translate(244.48833184094224 223.91720980810612) rotate(0 -32.97953778812089 23.77931195997769)"><path d="M-0.23 1.17 C-11.31 9, -54.99 38.96, -65.77 46.88 M-1.81 0.74 C-13.1 8.71, -56.06 40.36, -66.62 48.06" stroke="#000000" stroke-width="1" fill="none"></path></g></g><g stroke-linecap="round"><g transform="translate(243.88275146484375 149.72915649414062) rotate(0 8.85540771484375 5.078765869140625)"><path d="M-0.01 0.01 C2.87 1.57, 13.88 7.74, 16.91 9.46 M-1.47 -1.04 C1.82 0.66, 16.01 8.51, 19.2 10.62" stroke="#000000" stroke-width="1" fill="none"></path></g></g></svg>